<svg width="27" height="30" viewBox="0 0 27 30" fill="none" xmlns="http://www.w3.org/2000/svg">
<path d="M3.55545 16.125C3.55545 16.125 3.66656 16.125 3.55545 16.125C3.55545 16.125 3.66656 16.125 3.55545 16.125ZM13.5554 2.5C7.44434 2.5 2.44434 8.125 2.44434 15C2.44434 21.25 6.55545 26.5 11.9999 27.375V18H9.55545V15H12.111V13C12.111 9.75 13.4443 8.375 15.8888 8.375C16.9999 8.375 17.5554 8.5 17.8888 8.5V11H16.2221C15.2221 11 14.8888 12.125 14.8888 13.375V15H17.8888L17.4443 18H14.8888V27.375C20.3332 26.625 24.6666 21.375 24.6666 15C24.6666 8.125 19.6666 2.5 13.5554 2.5Z" fill="#954928"/>
</svg>
