<svg width="27" height="30" viewBox="0 0 27 30" fill="none" xmlns="http://www.w3.org/2000/svg">
<path d="M8.99989 3.75C5.93211 3.75 3.44434 6.54875 3.44434 10V20C3.44434 23.4513 5.93211 26.25 8.99989 26.25H17.8888C20.9566 26.25 23.4443 23.4513 23.4443 20V10C23.4443 6.54875 20.9566 3.75 17.8888 3.75H8.99989ZM20.111 6.25C20.7243 6.25 21.2221 6.81 21.2221 7.5C21.2221 8.19 20.7243 8.75 20.111 8.75C19.4977 8.75 18.9999 8.19 18.9999 7.5C18.9999 6.81 19.4977 6.25 20.111 6.25ZM13.4443 8.75C16.5121 8.75 18.9999 11.5487 18.9999 15C18.9999 18.4513 16.5121 21.25 13.4443 21.25C10.3766 21.25 7.88878 18.4513 7.88878 15C7.88878 11.5487 10.3766 8.75 13.4443 8.75ZM13.4443 11.25C12.5603 11.25 11.7124 11.6451 11.0873 12.3483C10.4622 13.0516 10.111 14.0054 10.111 15C10.111 15.9946 10.4622 16.9484 11.0873 17.6517C11.7124 18.3549 12.5603 18.75 13.4443 18.75C14.3284 18.75 15.1762 18.3549 15.8014 17.6517C16.4265 16.9484 16.7777 15.9946 16.7777 15C16.7777 14.0054 16.4265 13.0516 15.8014 12.3483C15.1762 11.6451 14.3284 11.25 13.4443 11.25Z" fill="#954928"/>
</svg>
