<svg width="27" height="30" viewBox="0 0 27 30" fill="none" xmlns="http://www.w3.org/2000/svg">
<path d="M10.3334 2.5C6.05105 2.5 2.55566 6.43232 2.55566 11.25C2.55566 16.0677 6.05105 20 10.3334 20C12.2757 20 14.0501 19.185 15.4159 17.8516L15.889 18.3838V20L22.5557 27.5L24.7779 25L18.1112 17.5H16.6746L16.2015 16.9678C17.3868 15.4313 18.1112 13.435 18.1112 11.25C18.1112 6.43232 14.6158 2.5 10.3334 2.5ZM10.3334 5C13.4149 5 15.889 7.78341 15.889 11.25C15.889 14.7166 13.4149 17.5 10.3334 17.5C7.25203 17.5 4.77789 14.7166 4.77789 11.25C4.77789 7.78341 7.25203 5 10.3334 5Z" fill="#954928"/>
</svg>
